<?xml version="1.0" encoding="utf-8"?>
<!-- Generator: Adobe Illustrator 21.0.2, SVG Export Plug-In . SVG Version: 6.00 Build 0)  -->
<svg version="1.1" id="Calque_1" xmlns="http://www.w3.org/2000/svg" xmlns:xlink="http://www.w3.org/1999/xlink" x="0px" y="0px"
	 viewBox="0 0 476.6 41" style="enable-background:new 0 0 476.6 41;" xml:space="preserve">
<style type="text/css">
	.st0{fill:#FFFFFF;stroke:#000000;stroke-miterlimit:10;}
</style>
<g>
	<g>
		<polygon points="146.2,38.6 115.8,20.6 145.1,2.8 158.5,10.8 162.4,10.8 145.1,0.4 111.9,20.6 146.3,41 163.5,30.2 159.6,30.2 		
			"/>
	</g>
	<g>
		<polygon points="183.6,38.6 153.2,20.6 182.4,2.8 195.8,10.8 199.7,10.8 182.4,0.4 149.3,20.6 183.7,41 200.8,30.2 197,30.2 		"/>
	</g>
	<g>
		<polygon points="220.3,38.6 189.9,20.6 219.1,2.8 232.5,10.8 236.4,10.8 219.1,0.4 186,20.6 220.4,41 237.5,30.2 233.7,30.2 		"/>
	</g>
	<g>
		<polygon points="328.5,2.4 358.9,20.4 329.6,38.2 316.2,30.2 312.3,30.2 329.7,40.6 362.8,20.4 328.4,0 311.2,10.8 315.1,10.8 		
			"/>
	</g>
	<g>
		<polygon points="291.1,2.4 321.6,20.4 292.3,38.2 278.9,30.2 275,30.2 292.3,40.6 325.4,20.4 291,0 273.9,10.8 277.8,10.8 		"/>
	</g>
	<g>
		<polygon points="254.4,2.4 284.9,20.4 255.6,38.2 242.2,30.2 238.3,30.2 255.6,40.6 288.8,20.4 254.4,0 237.2,10.8 241.1,10.8 		
			"/>
	</g>
	<g>
		<polygon points="442.3,2.4 472.7,20.4 443.5,38.2 430,30.2 426.1,30.2 443.5,40.6 476.6,20.4 442.2,0 425.1,10.8 428.9,10.8 		"/>
	</g>
	<g>
		<polygon points="405,2.4 435.4,20.4 406.1,38.2 392.7,30.2 388.8,30.2 406.2,40.6 439.3,20.4 404.9,0 387.7,10.8 391.6,10.8 		"/>
	</g>
	<g>
		<polygon points="368.3,2.4 398.7,20.4 369.4,38.2 356,30.2 352.1,30.2 369.5,40.6 402.6,20.4 368.2,0 351,10.8 354.9,10.8 		"/>
	</g>
	<g>
		<polygon points="34.3,38.6 3.9,20.6 33.2,2.8 46.6,10.8 50.5,10.8 33.1,0.4 0,20.6 34.4,41 51.5,30.2 47.7,30.2 		"/>
	</g>
	<g>
		<polygon points="71.6,38.6 41.2,20.6 70.5,2.8 83.9,10.8 87.8,10.8 70.5,0.4 37.3,20.6 71.7,41 88.9,30.2 85,30.2 		"/>
	</g>
	<g>
		<polygon points="108.3,38.6 77.9,20.6 107.2,2.8 120.6,10.8 124.5,10.8 107.1,0.4 74,20.6 108.4,41 125.6,30.2 121.7,30.2 		"/>
	</g>
	<polygon class="st0" points="237.6,12.5 237,12.1 237,12.1 237,12.1 235.4,13.2 223.9,20.4 237.4,28.1 238,28.5 238,28.5 238,28.5 
		239.6,27.4 251.1,20.1 	"/>
</g>
</svg>
